<?xml version="1.0" encoding="UTF-8"?>
<svg width="512" height="512" version="1.1" viewBox="0 0 512 512" xmlns="http://www.w3.org/2000/svg">
 <defs>
  <linearGradient id="usbGradient" x1="0%" y1="0%" x2="0%" y2="100%">
   <stop offset="0%" style="stop-color:#5E81AC;stop-opacity:1" />
   <stop offset="100%" style="stop-color:#5E81AC;stop-opacity:1" />
  </linearGradient>
  <linearGradient id="lockGradient" x1="0%" y1="0%" x2="0%" y2="100%">
   <stop offset="0%" style="stop-color:#EBCB8B;stop-opacity:1" />
   <stop offset="100%" style="stop-color:#D08770;stop-opacity:1" />
  </linearGradient>
 </defs>
 
 <!-- Background circle -->
 <circle cx="256" cy="256" r="240" fill="#2E3440" opacity="0.95"/>
 
 <!-- USB drive body -->
 <rect x="106" y="130" width="300" height="260" rx="20" ry="20" fill="url(#usbGradient)" stroke="#3B4252" stroke-width="10"/>
 
 <!-- USB connector -->
 <rect x="176" y="70" width="160" height="70" rx="10" ry="10" fill="#4C566A" stroke="#3B4252" stroke-width="8"/>
 <rect x="196" y="40" width="120" height="40" rx="6" ry="6" fill="#D8DEE9"/>
 
 <!-- USB contacts -->
 <rect x="216" y="90" width="16" height="35" fill="#3B4252"/>
 <rect x="248" y="90" width="16" height="35" fill="#3B4252"/>
 <rect x="280" y="90" width="16" height="35" fill="#3B4252"/>
 
 <!-- Lock body -->
 <rect x="156" y="240" width="200" height="130" rx="18" ry="18" fill="url(#lockGradient)" stroke="#BF616A" stroke-width="10"/>
 
 <!-- Lock shackle -->
 <path d="M 206 240 L 206 190 Q 206 140 256 140 Q 306 140 306 190 L 306 240" 
       fill="none" stroke="url(#lockGradient)" stroke-width="28" stroke-linecap="round"/>
 
 <!-- Keyhole -->
 <circle cx="256" cy="280" r="20" fill="#2E3440"/>
 <rect x="246" y="280" width="20" height="50" rx="10" fill="#2E3440"/>
 
 <!-- LED indicator -->
 <circle cx="320" cy="180" r="14" fill="#A3BE8C" opacity="0.9"/>
</svg>
